<svg width="19" height="14" viewBox="0 0 19 14" fill="none" xmlns="http://www.w3.org/2000/svg">
<path d="M6.87886 11.3705C6.77619 12.1003 6.417 12.768 5.86727 13.251C5.31753 13.7341 4.61417 14 3.88636 14C3.15856 14 2.4552 13.7341 1.90546 13.251C1.35572 12.768 0.996533 12.1003 0.893864 11.3705H0V0.874658C0 0.642684 0.09099 0.420212 0.252953 0.256181C0.414916 0.0921513 0.634586 0 0.863636 0H12.9545C13.1836 0 13.4033 0.0921513 13.5652 0.256181C13.7272 0.420212 13.8182 0.642684 13.8182 0.874658V2.62397H16.4091L19 6.17158V11.3705H17.2425C17.1398 12.1003 16.7806 12.768 16.2309 13.251C15.6812 13.7341 14.9778 14 14.25 14C13.5222 14 12.8188 13.7341 12.2691 13.251C11.7194 12.768 11.3602 12.1003 11.2575 11.3705H6.87886ZM12.0909 1.74932H1.72727V8.79031C2.06803 8.43799 2.48779 8.17427 2.95083 8.02159C3.41387 7.8689 3.90648 7.83178 4.38673 7.91337C4.86699 7.99496 5.32067 8.19286 5.70916 8.49022C6.09766 8.78757 6.40946 9.17559 6.61805 9.62123H11.5183C11.6634 9.31248 11.8577 9.03171 12.0909 8.79031V1.74932ZM13.8182 6.99726H17.2727V6.74798L15.5385 4.37329H13.8182V6.99726ZM14.25 12.2452C14.5937 12.2452 14.9233 12.1069 15.1663 11.8608C15.4094 11.6147 15.5459 11.2809 15.5459 10.9328C15.5459 10.5847 15.4094 10.2509 15.1663 10.0048C14.9233 9.75863 14.5937 9.62036 14.25 9.62036C13.9063 9.62036 13.5767 9.75863 13.3337 10.0048C13.0906 10.2509 12.9541 10.5847 12.9541 10.9328C12.9541 11.2809 13.0906 11.6147 13.3337 11.8608C13.5767 12.1069 13.9063 12.2452 14.25 12.2452ZM5.18182 10.9332C5.18182 10.7609 5.14831 10.5903 5.08321 10.4311C5.01811 10.272 4.92268 10.1273 4.80239 10.0055C4.68209 9.88368 4.53928 9.78704 4.38211 9.7211C4.22494 9.65517 4.05649 9.62123 3.88636 9.62123C3.71624 9.62123 3.54779 9.65517 3.39061 9.7211C3.23344 9.78704 3.09063 9.88368 2.97034 10.0055C2.85004 10.1273 2.75462 10.272 2.68952 10.4311C2.62442 10.5903 2.59091 10.7609 2.59091 10.9332C2.59091 11.2812 2.72739 11.6149 2.97034 11.8609C3.21328 12.107 3.54279 12.2452 3.88636 12.2452C4.22994 12.2452 4.55944 12.107 4.80239 11.8609C5.04533 11.6149 5.18182 11.2812 5.18182 10.9332Z" fill="#F99E2C"/>
</svg>
