<svg width="53" height="53" viewBox="0 0 53 53" fill="none" xmlns="http://www.w3.org/2000/svg">
<path d="M9.51485 45.4061C11.061 41.7634 14.6709 39.2085 18.8776 39.2085H34.1276C38.3343 39.2085 41.9442 41.7634 43.4903 45.4061M36.6693 20.146C36.6693 25.7609 32.1175 30.3127 26.5026 30.3127C20.8877 30.3127 16.3359 25.7609 16.3359 20.146C16.3359 14.5311 20.8877 9.97933 26.5026 9.97933C32.1175 9.97933 36.6693 14.5311 36.6693 20.146ZM51.9193 26.5002C51.9193 40.5374 40.5398 51.9168 26.5026 51.9168C12.4654 51.9168 1.08594 40.5374 1.08594 26.5002C1.08594 12.4629 12.4654 1.0835 26.5026 1.0835C40.5398 1.0835 51.9193 12.4629 51.9193 26.5002Z" stroke="white" stroke-width="2" stroke-linecap="round" stroke-linejoin="round"/>
</svg>
