<svg width="15" height="21" viewBox="0 0 15 21" fill="none" xmlns="http://www.w3.org/2000/svg">
<path d="M7.5 15.725H7.50929M3.97143 20H11.0286C12.0687 20 12.5887 20 12.986 19.7929C13.3354 19.6108 13.6195 19.3201 13.7976 18.9626C14 18.5562 14 18.0241 14 16.96V4.04C14 2.9759 14 2.44385 13.7976 2.03742C13.6195 1.67991 13.3354 1.38925 12.986 1.20709C12.5887 1 12.0687 1 11.0286 1H3.97143C2.93133 1 2.41128 1 2.01402 1.20709C1.66457 1.38925 1.38047 1.67991 1.20242 2.03742C1 2.44385 1 2.9759 1 4.04V16.96C1 18.0241 1 18.5562 1.20242 18.9626C1.38047 19.3201 1.66457 19.6108 2.01402 19.7929C2.41128 20 2.93133 20 3.97143 20ZM7.96429 15.725C7.96429 15.9873 7.75642 16.2 7.5 16.2C7.24358 16.2 7.03571 15.9873 7.03571 15.725C7.03571 15.4627 7.24358 15.25 7.5 15.25C7.75642 15.25 7.96429 15.4627 7.96429 15.725Z" stroke="#BBBBBB" stroke-width="2" stroke-linecap="round" stroke-linejoin="round"/>
</svg>
