<svg width="21" height="20" viewBox="0 0 21 20" fill="none" xmlns="http://www.w3.org/2000/svg">
<path d="M16.9093 7.89014C16.9093 7.89014 16.4342 13.5026 16.1586 15.8668C16.0273 16.996 15.295 17.6576 14.0953 17.6785C11.8124 17.7176 9.52694 17.7201 7.24493 17.6743C6.09081 17.6518 5.37068 16.9818 5.24206 15.8726C4.96469 13.4876 4.49219 7.89014 4.49219 7.89014" stroke="#BBBBBB" stroke-opacity="0.733333" stroke-width="1.2" stroke-linecap="round" stroke-linejoin="round"/>
<path d="M18.1196 5.19971H3.28125" stroke="#BBBBBB" stroke-opacity="0.733333" stroke-width="1.2" stroke-linecap="round" stroke-linejoin="round"/>
<path d="M15.2607 5.19998C14.5739 5.19998 13.9824 4.73748 13.8476 4.09664L13.6349 3.08332C13.5037 2.61582 13.0593 2.29248 12.5526 2.29248H8.84876C8.34213 2.29248 7.89763 2.61582 7.76638 3.08332L7.55375 4.09664C7.419 4.73748 6.82751 5.19998 6.14062 5.19998" stroke="#BBBBBB" stroke-opacity="0.733333" stroke-width="1.2" stroke-linecap="round" stroke-linejoin="round"/>
</svg>
