<svg width="30" height="30" viewBox="0 0 30 30" fill="none" xmlns="http://www.w3.org/2000/svg">
<path d="M13.2322 16.7678C12.2559 15.7915 12.2559 14.2085 13.2322 13.2322C14.2085 12.2559 15.7915 12.2559 16.7678 13.2322C17.7441 14.2085 17.7441 15.7915 16.7678 16.7678M9.6967 20.3033C6.76777 17.3744 6.76777 12.6256 9.6967 9.6967C12.6256 6.76777 17.3744 6.76777 20.3033 9.6967C23.2322 12.6256 23.2322 17.3744 20.3033 20.3033M6.16117 23.8388C1.27961 18.9573 1.27961 11.0427 6.16117 6.16117C11.0427 1.27961 18.9573 1.27961 23.8388 6.16117C28.7204 11.0427 28.7204 18.9573 23.8388 23.8388" stroke="#BBBBBB" stroke-width="2" stroke-linecap="round" stroke-linejoin="round"/>
</svg>
