<svg width="15" height="15" viewBox="0 0 15 15" fill="none" xmlns="http://www.w3.org/2000/svg">
<rect y="0.908691" width="15" height="13.6364" rx="6.81818" fill="#DF4924"/>
<path d="M5.6 5.59C5.64667 4.97667 5.88333 4.49667 6.31 4.15C6.73667 3.80333 7.29 3.63 7.97 3.63C8.42333 3.63 8.81333 3.71333 9.14 3.88C9.47333 4.04 9.72333 4.26 9.89 4.54C10.0633 4.82 10.15 5.13667 10.15 5.49C10.15 5.90333 10.03 6.26 9.79 6.56C9.55667 6.86 9.25 7.05333 8.87 7.14V7.19C9.30333 7.29667 9.64667 7.50667 9.9 7.82C10.1533 8.13333 10.28 8.54333 10.28 9.05C10.28 9.43 10.1933 9.77333 10.02 10.08C9.84667 10.38 9.58667 10.6167 9.24 10.79C8.89333 10.9633 8.47667 11.05 7.99 11.05C7.28333 11.05 6.70333 10.8667 6.25 10.5C5.79667 10.1267 5.54333 9.6 5.49 8.92H6.37C6.41667 9.32 6.58 9.64667 6.86 9.9C7.14 10.1533 7.51333 10.28 7.98 10.28C8.44667 10.28 8.8 10.16 9.04 9.92C9.28667 9.67333 9.41 9.35667 9.41 8.97C9.41 8.47 9.24333 8.11 8.91 7.89C8.57667 7.67 8.07333 7.56 7.4 7.56H7.17V6.8H7.41C8.02333 6.79333 8.48667 6.69333 8.8 6.5C9.11333 6.3 9.27 5.99333 9.27 5.58C9.27 5.22667 9.15333 4.94333 8.92 4.73C8.69333 4.51667 8.36667 4.41 7.94 4.41C7.52667 4.41 7.19333 4.51667 6.94 4.73C6.68667 4.94333 6.53667 5.23 6.49 5.59H5.6Z" fill="#2E2E2E"/>
</svg>
