<svg width="16" height="16" viewBox="0 0 16 16" fill="none" xmlns="http://www.w3.org/2000/svg">
<path d="M5.33203 5.33398V3.46732C5.33203 2.72058 5.33203 2.34721 5.47736 2.062C5.60519 1.81111 5.80916 1.60714 6.06004 1.47931C6.34526 1.33398 6.71863 1.33398 7.46536 1.33398H12.532C13.2788 1.33398 13.6521 1.33398 13.9374 1.47931C14.1882 1.60714 14.3922 1.81111 14.52 2.062C14.6654 2.34721 14.6654 2.72058 14.6654 3.46732V8.53398C14.6654 9.28072 14.6654 9.65409 14.52 9.93931C14.3922 10.1902 14.1882 10.3942 13.9374 10.522C13.6521 10.6673 13.2788 10.6673 12.532 10.6673H10.6654M3.46536 14.6673H8.53203C9.27877 14.6673 9.65214 14.6673 9.93735 14.522C10.1882 14.3942 10.3922 14.1902 10.52 13.9393C10.6654 13.6541 10.6654 13.2807 10.6654 12.534V7.46732C10.6654 6.72058 10.6654 6.34721 10.52 6.062C10.3922 5.81111 10.1882 5.60714 9.93735 5.47931C9.65214 5.33398 9.27877 5.33398 8.53203 5.33398H3.46536C2.71863 5.33398 2.34526 5.33398 2.06004 5.47931C1.80916 5.60714 1.60519 5.81111 1.47736 6.062C1.33203 6.34721 1.33203 6.72058 1.33203 7.46732V12.534C1.33203 13.2807 1.33203 13.6541 1.47736 13.9393C1.60519 14.1902 1.80916 14.3942 2.06004 14.522C2.34526 14.6673 2.71863 14.6673 3.46536 14.6673Z" stroke="white" stroke-width="2" stroke-linecap="round" stroke-linejoin="round"/>
</svg>
