<svg width="18" height="18" viewBox="0 0 18 18" fill="none" xmlns="http://www.w3.org/2000/svg">
<path d="M2.55862 8.05836C2.11212 7.88472 1.88886 7.7979 1.82368 7.67279C1.76718 7.56434 1.7671 7.43516 1.82348 7.32664C1.88851 7.20146 2.11166 7.11438 2.55797 6.94021L15.2238 1.99746C15.6267 1.84023 15.8281 1.76162 15.9568 1.80462C16.0686 1.84197 16.1563 1.92969 16.1937 2.04148C16.2367 2.1702 16.1581 2.37164 16.0009 2.77453L11.0581 15.4403C10.8839 15.8866 10.7968 16.1098 10.6717 16.1748C10.5631 16.2312 10.434 16.2311 10.3255 16.1746C10.2004 16.1094 10.1136 15.8862 9.93995 15.4397L7.96886 10.3712C7.93361 10.2805 7.91599 10.2352 7.88877 10.1971C7.86464 10.1632 7.83507 10.1337 7.80124 10.1095C7.76308 10.0823 7.71776 10.0647 7.62713 10.0294L2.55862 8.05836Z" stroke="#DF4924" stroke-width="2" stroke-linecap="round" stroke-linejoin="round"/>
</svg>
