<svg width="44" height="44" viewBox="0 0 44 44" fill="none" xmlns="http://www.w3.org/2000/svg">
<path d="M9.74784 35.6369C10.8631 33.0094 13.467 31.1665 16.5013 31.1665H27.5013C30.5356 31.1665 33.1395 33.0094 34.2548 35.6369M29.3346 17.4165C29.3346 21.4666 26.0514 24.7498 22.0013 24.7498C17.9512 24.7498 14.668 21.4666 14.668 17.4165C14.668 13.3664 17.9512 10.0832 22.0013 10.0832C26.0514 10.0832 29.3346 13.3664 29.3346 17.4165ZM40.3346 21.9998C40.3346 32.1251 32.1265 40.3332 22.0013 40.3332C11.8761 40.3332 3.66797 32.1251 3.66797 21.9998C3.66797 11.8746 11.8761 3.6665 22.0013 3.6665C32.1265 3.6665 40.3346 11.8746 40.3346 21.9998Z" stroke="white" stroke-width="2" stroke-linecap="round" stroke-linejoin="round"/>
</svg>
